<mxfile host="drawio-plugin" modified="2024-02-03T10:19:29.286Z" agent="5.0 (X11; Linux x86_64) AppleWebKit/537.36 (KHTML, like Gecko) Chrome/111.0.0.0 Safari/537.36" etag="VdydHbNKn3rGnwGy4PZU" version="20.5.3" type="embed"><diagram id="Acgq7PM5FZ4FeipVhh3X" name="Page-1"><mxGraphModel dx="1015" dy="771" grid="1" gridSize="10" guides="1" tooltips="1" connect="1" arrows="1" fold="1" page="1" pageScale="1" pageWidth="850" pageHeight="1100" math="0" shadow="0"><root><mxCell id="0"/><mxCell id="1" parent="0"/><mxCell id="20" style="edgeStyle=orthogonalEdgeStyle;rounded=0;orthogonalLoop=1;jettySize=auto;html=1;entryX=-0.013;entryY=0.821;entryDx=0;entryDy=0;entryPerimeter=0;" parent="1" source="8" target="17" edge="1"><mxGeometry relative="1" as="geometry"/></mxCell><mxCell id="8" value="Customer" style="shape=umlActor;verticalLabelPosition=bottom;verticalAlign=top;html=1;" parent="1" vertex="1"><mxGeometry x="70" y="77" width="30" height="60" as="geometry"/></mxCell><mxCell id="15" value="Places" style="text;html=1;align=center;verticalAlign=middle;resizable=0;points=[];autosize=1;" parent="1" vertex="1"><mxGeometry x="120" y="77" width="60" height="30" as="geometry"/></mxCell><mxCell id="97" value="" style="edgeStyle=orthogonalEdgeStyle;rounded=0;orthogonalLoop=1;jettySize=auto;html=1;" parent="1" source="16" target="95" edge="1"><mxGeometry relative="1" as="geometry"/></mxCell><mxCell id="16" value="Order" style="swimlane;fontStyle=1;align=center;verticalAlign=top;childLayout=stackLayout;horizontal=1;startSize=26;horizontalStack=0;resizeParent=1;resizeParentMax=0;resizeLast=0;collapsible=1;marginBottom=0;" parent="1" vertex="1"><mxGeometry x="202" y="60" width="160" height="52" as="geometry"/></mxCell><mxCell id="17" value="+ order_ref" style="text;align=left;verticalAlign=top;spacingLeft=4;spacingRight=4;overflow=hidden;rotatable=0;points=[[0,0.5],[1,0.5]];portConstraint=eastwest;" parent="16" vertex="1"><mxGeometry y="26" width="160" height="26" as="geometry"/></mxCell><mxCell id="95" value="OrderLine" style="swimlane;fontStyle=1;align=center;verticalAlign=top;childLayout=stackLayout;horizontal=1;startSize=26;horizontalStack=0;resizeParent=1;resizeParentMax=0;resizeLast=0;collapsible=1;marginBottom=0;" parent="1" vertex="1"><mxGeometry x="420" y="34" width="160" height="104" as="geometry"/></mxCell><mxCell id="136" value="+ order_ref" style="text;align=left;verticalAlign=top;spacingLeft=4;spacingRight=4;overflow=hidden;rotatable=0;points=[[0,0.5],[1,0.5]];portConstraint=eastwest;" parent="95" vertex="1"><mxGeometry y="26" width="160" height="26" as="geometry"/></mxCell><mxCell id="96" value="+ CKU" style="text;align=left;verticalAlign=top;spacingLeft=4;spacingRight=4;overflow=hidden;rotatable=0;points=[[0,0.5],[1,0.5]];portConstraint=eastwest;" parent="95" vertex="1"><mxGeometry y="52" width="160" height="26" as="geometry"/></mxCell><mxCell id="101" value="+ quantity" style="text;align=left;verticalAlign=top;spacingLeft=4;spacingRight=4;overflow=hidden;rotatable=0;points=[[0,0.5],[1,0.5]];portConstraint=eastwest;" parent="95" vertex="1"><mxGeometry y="78" width="160" height="26" as="geometry"/></mxCell><mxCell id="117" style="edgeStyle=orthogonalEdgeStyle;rounded=0;orthogonalLoop=1;jettySize=auto;html=1;entryX=0.002;entryY=0.388;entryDx=0;entryDy=0;entryPerimeter=0;" parent="1" source="104" target="113" edge="1"><mxGeometry relative="1" as="geometry"/></mxCell><mxCell id="104" value="Purchasing &lt;br&gt;Department" style="shape=umlActor;verticalLabelPosition=bottom;verticalAlign=top;html=1;fillColor=none;" parent="1" vertex="1"><mxGeometry x="70" y="238" width="30" height="60" as="geometry"/></mxCell><mxCell id="176" style="edgeStyle=orthogonalEdgeStyle;shape=connector;rounded=0;orthogonalLoop=1;jettySize=auto;html=1;entryX=0.478;entryY=1.026;entryDx=0;entryDy=0;entryPerimeter=0;labelBackgroundColor=default;strokeColor=default;strokeWidth=1;fontFamily=Helvetica;fontSize=13;fontColor=default;startArrow=none;startFill=0;endArrow=classicThin;endFill=1;startSize=7;endSize=7;targetPerimeterSpacing=3;" parent="1" source="113" target="101" edge="1"><mxGeometry relative="1" as="geometry"/></mxCell><mxCell id="113" value="Batch of Stock" style="swimlane;fontStyle=0;childLayout=stackLayout;horizontal=1;startSize=26;fillColor=none;horizontalStack=0;resizeParent=1;resizeParentMax=0;resizeLast=0;collapsible=1;marginBottom=0;" parent="1" vertex="1"><mxGeometry x="250" y="218" width="298" height="182" as="geometry"/></mxCell><mxCell id="114" value="+ reference" style="text;strokeColor=none;fillColor=none;align=left;verticalAlign=top;spacingLeft=4;spacingRight=4;overflow=hidden;rotatable=0;points=[[0,0.5],[1,0.5]];portConstraint=eastwest;" parent="113" vertex="1"><mxGeometry y="26" width="298" height="26" as="geometry"/></mxCell><mxCell id="120" value="+ CKU" style="text;strokeColor=none;fillColor=none;align=left;verticalAlign=top;spacingLeft=4;spacingRight=4;overflow=hidden;rotatable=0;points=[[0,0.5],[1,0.5]];portConstraint=eastwest;" parent="113" vertex="1"><mxGeometry y="52" width="298" height="26" as="geometry"/></mxCell><mxCell id="121" value="+ qunaity" style="text;strokeColor=none;fillColor=none;align=left;verticalAlign=top;spacingLeft=4;spacingRight=4;overflow=hidden;rotatable=0;points=[[0,0.5],[1,0.5]];portConstraint=eastwest;" parent="113" vertex="1"><mxGeometry y="78" width="298" height="26" as="geometry"/></mxCell><mxCell id="131" value="+ ETA ( If they are in warehouse stock or in shipping )" style="text;strokeColor=none;fillColor=none;align=left;verticalAlign=top;spacingLeft=4;spacingRight=4;overflow=hidden;rotatable=0;points=[[0,0.5],[1,0.5]];portConstraint=eastwest;" parent="113" vertex="1"><mxGeometry y="104" width="298" height="26" as="geometry"/></mxCell><mxCell id="125" value="available_quantity" style="text;strokeColor=none;fillColor=none;align=left;verticalAlign=top;spacingLeft=4;spacingRight=4;overflow=hidden;rotatable=0;points=[[0,0.5],[1,0.5]];portConstraint=eastwest;" parent="113" vertex="1"><mxGeometry y="130" width="298" height="26" as="geometry"/></mxCell><mxCell id="146" value="_allocations" style="text;strokeColor=none;fillColor=none;align=left;verticalAlign=top;spacingLeft=4;spacingRight=4;overflow=hidden;rotatable=0;points=[[0,0.5],[1,0.5]];portConstraint=eastwest;" parent="113" vertex="1"><mxGeometry y="156" width="298" height="26" as="geometry"/></mxCell><mxCell id="119" value="Orders" style="text;html=1;align=center;verticalAlign=middle;resizable=0;points=[];autosize=1;strokeColor=none;fillColor=none;" parent="1" vertex="1"><mxGeometry x="122" y="237" width="60" height="30" as="geometry"/></mxCell><mxCell id="126" value="&lt;font style=&quot;font-size: 13px;&quot;&gt;IF availavle_quanity &amp;lt; orderline&lt;br&gt;We not able to allocate&lt;/font&gt;" style="ellipse;whiteSpace=wrap;html=1;fontSize=14;fillColor=none;" parent="1" vertex="1"><mxGeometry x="540" y="510" width="210" height="100" as="geometry"/></mxCell><mxCell id="128" value="We cann't allocate &lt;br&gt;the same line twice" style="ellipse;whiteSpace=wrap;html=1;fontSize=14;fillColor=none;" parent="1" vertex="1"><mxGeometry x="130" y="505" width="175" height="90" as="geometry"/></mxCell><mxCell id="130" value="Available quantity reduced by order line x" style="ellipse;whiteSpace=wrap;html=1;fontSize=14;fillColor=none;" parent="1" vertex="1"><mxGeometry x="345" y="505" width="160" height="100" as="geometry"/></mxCell><mxCell id="133" value="&lt;font style=&quot;font-size: 14px;&quot;&gt;We allocate in warehouse stock in&lt;br&gt;order of&amp;nbsp;earliest ETA&lt;/font&gt;" style="ellipse;whiteSpace=wrap;html=1;fontSize=14;fillColor=none;" parent="1" vertex="1"><mxGeometry x="670" y="320" width="240" height="110" as="geometry"/></mxCell><mxCell id="154" style="edgeStyle=orthogonalEdgeStyle;shape=connector;rounded=0;orthogonalLoop=1;jettySize=auto;html=1;labelBackgroundColor=default;strokeColor=default;strokeWidth=1;fontFamily=Helvetica;fontSize=11;fontColor=default;startArrow=none;startFill=0;endArrow=classicThin;endFill=1;startSize=7;endSize=7;targetPerimeterSpacing=3;" parent="1" source="152" target="120" edge="1"><mxGeometry relative="1" as="geometry"/></mxCell><mxCell id="178" style="edgeStyle=orthogonalEdgeStyle;shape=connector;rounded=0;orthogonalLoop=1;jettySize=auto;html=1;entryX=0.978;entryY=1.167;entryDx=0;entryDy=0;entryPerimeter=0;labelBackgroundColor=default;strokeColor=default;strokeWidth=1;fontFamily=Helvetica;fontSize=13;fontColor=default;startArrow=none;startFill=0;endArrow=classicThin;endFill=1;startSize=7;endSize=7;targetPerimeterSpacing=3;" parent="1" source="152" target="136" edge="1"><mxGeometry relative="1" as="geometry"/></mxCell><mxCell id="152" value="Allocate()" style="rounded=1;whiteSpace=wrap;html=1;" parent="1" vertex="1"><mxGeometry x="670" y="160" width="120" height="60" as="geometry"/></mxCell><mxCell id="163" style="edgeStyle=orthogonalEdgeStyle;shape=connector;rounded=0;orthogonalLoop=1;jettySize=auto;html=1;labelBackgroundColor=default;strokeColor=default;strokeWidth=1;fontFamily=Helvetica;fontSize=13;fontColor=default;startArrow=none;startFill=0;endArrow=classicThin;endFill=1;startSize=7;endSize=7;targetPerimeterSpacing=3;" parent="1" source="156" target="157" edge="1"><mxGeometry relative="1" as="geometry"/></mxCell><mxCell id="156" value="Allocate" style="rounded=0;whiteSpace=wrap;html=1;fontFamily=Helvetica;fontSize=13;fontColor=default;" parent="1" vertex="1"><mxGeometry x="1090" y="230" width="120" height="60" as="geometry"/></mxCell><mxCell id="172" style="edgeStyle=orthogonalEdgeStyle;shape=connector;rounded=0;orthogonalLoop=1;jettySize=auto;html=1;labelBackgroundColor=default;strokeColor=default;strokeWidth=1;fontFamily=Helvetica;fontSize=13;fontColor=default;startArrow=none;startFill=0;endArrow=classicThin;endFill=1;startSize=7;endSize=7;targetPerimeterSpacing=3;" parent="1" source="157" target="159" edge="1"><mxGeometry relative="1" as="geometry"/></mxCell><mxCell id="157" value="Batch" style="rounded=1;whiteSpace=wrap;html=1;fontFamily=Helvetica;fontSize=13;fontColor=default;" parent="1" vertex="1"><mxGeometry x="1280" y="170" width="120" height="60" as="geometry"/></mxCell><mxCell id="159" value="OrderLine" style="shape=parallelogram;perimeter=parallelogramPerimeter;whiteSpace=wrap;html=1;fixedSize=1;fontFamily=Helvetica;fontSize=13;fontColor=default;" parent="1" vertex="1"><mxGeometry x="1280" y="290" width="120" height="60" as="geometry"/></mxCell></root></mxGraphModel></diagram></mxfile>